<?xml version="1.0" encoding="UTF-8"?>
<svg width="20px" height="20px" viewBox="0 0 20 20" version="1.1" xmlns="http://www.w3.org/2000/svg" xmlns:xlink="http://www.w3.org/1999/xlink">
    <title>toncoin symbol</title>
    <defs>
        <path d="M4.23710475,0.0152142857 C4.2594619,0.00517857143 4.2837119,6.34413157e-16 4.30824761,6.34413157e-16 L8.21781904,6.34413157e-16 C8.24235475,6.34413157e-16 8.26660475,0.00517857143 8.28899761,0.0152142857 L10.9223548,1.19628571 C10.953069,1.21003571 10.9791048,1.23242857 10.9973548,1.26071429 L12.4983548,3.58853571 C12.5394619,3.65228571 12.5344976,3.73535714 12.4861048,3.79375 L6.3969619,11.1427143 C6.32742618,11.2266429 6.19867618,11.2266429 6.12914047,11.1427143 L0.03999761,3.79375 C-0.0083952471,3.73535714 -0.0133595328,3.65228571 0.02774761,3.58853571 L1.5287119,1.26071429 C1.5469619,1.23242857 1.57303332,1.21003571 1.6037119,1.19628571 L4.23710475,0.0152142857 Z" id="path-1"></path>
    </defs>
    <g id="Symbols" stroke="none" stroke-width="1" fill="none" fill-rule="evenodd">
        <g id="amount-description" transform="translate(-174.000000, 0.000000)">
            <g id="toncoin-symbol" transform="translate(174.000000, 0.000000)">
                <rect id="Path" x="0" y="0" width="20" height="20"></rect>
                <g id="Group-2" transform="translate(3.736752, 4.500000)">
                    <path d="M4.23724761,0.0152142857 C4.25960475,0.00517857143 4.28385475,0 4.30839047,0 L8.2179619,0 C8.24249761,0 8.26674761,0.00517857143 8.28914047,0.0152142857 L10.9224976,1.19628571 C10.9532119,1.21003571 10.9792476,1.23242857 10.9974976,1.26071429 L12.4984976,3.58853571 C12.5396048,3.65228571 12.5346405,3.73535714 12.4862476,3.79375 L6.39710475,11.1427143 C6.32756904,11.2266429 6.19881904,11.2266429 6.12928332,11.1427143 L0.0401404672,3.79375 C-0.00825238996,3.73535714 -0.0132166757,3.65228571 0.0278904672,3.58853571 L1.52885475,1.26071429 C1.54710475,1.23242857 1.57317618,1.21003571 1.60385475,1.19628571 L4.23724761,0.0152142857 Z" id="Path" fill="#C4C4C4" fill-rule="nonzero"></path>
                    <g id="Clipped">
                        <mask id="mask-2" fill="white">
                            <use xlink:href="#path-1"></use>
                        </mask>
                        <g id="Path"></g>
                        <g id="Group" mask="url(#mask-2)" fill-rule="nonzero">
                            <g transform="translate(-0.041145, 0.000000)">
                                <rect id="Rectangle" fill="#47A9F1" x="0" y="2.73910714" width="12.6086786" height="8.56521429"></rect>
                                <rect id="Rectangle" fill="#7EC7FF" x="0" y="-6.34413157e-16" width="12.6086786" height="3.26086786"></rect>
                                <polygon id="Path" fill="#75C1FF" points="6.3045 2.34782143 8.69582143 5.52171429 3.91321429 5.52171429"></polygon>
                                <polygon id="Path" fill="#8DCCFC" points="6.3045 13 8.69582143 5.52175 3.91321429 5.52175"></polygon>
                                <polygon id="Path" fill="#BFE2F7" points="6.30453571 2.34782143 2.06542857 1.71739286 3.91325 5.52175"></polygon>
                                <polygon id="Path" fill="#87CBFF" points="0 3.69564286 2.06521429 1.71739286 3.91303571 5.52175"></polygon>
                                <polygon id="Path" fill="#47A9F1" points="0 3.69564286 2.06521429 1.71739286 1.60867857 1.21739286"></polygon>
                                <polygon id="Path" fill="#4BAEF7" points="6.30425 2.34782143 10.5433571 1.71739286 8.69553571 5.52175"></polygon>
                                <polygon id="Path" fill="#6EBEFF" points="12.6087857 3.69564286 10.5435714 1.71739286 8.69575 5.52175"></polygon>
                                <polygon id="Path" fill="#389BE3" points="12.6087857 3.69564286 10.5435714 1.71739286 11.0001071 1.21739286"></polygon>
                            </g>
                        </g>
                    </g>
                </g>
            </g>
        </g>
    </g>
</svg>