<?xml version="1.0" encoding="UTF-8"?>
<svg width="25px" height="25px" viewBox="0 0 25 25" version="1.1" xmlns="http://www.w3.org/2000/svg" xmlns:xlink="http://www.w3.org/1999/xlink">
    <title>WalletConnect</title>
    <defs>
        <radialGradient cx="0%" cy="50%" fx="0%" fy="50%" r="100%" id="radialGradient-1">
            <stop stop-color="#5D9DF6" offset="0%"></stop>
            <stop stop-color="#006FFF" offset="100%"></stop>
        </radialGradient>
    </defs>
    <g id="WalletConnect" stroke="none" stroke-width="1" fill="none" fill-rule="evenodd">
        <rect id="Path" x="0" y="0" width="25" height="25"></rect>
        <rect id="Shape" fill="url(#radialGradient-1)" fill-rule="nonzero" x="0" y="0" width="25" height="25" rx="12.5"></rect>
        <path d="M8.2621959,9.01030937 C10.6026744,6.71878579 14.3973398,6.71878579 16.7378182,9.01030937 L17.0194986,9.2860979 C17.1365225,9.40067407 17.1365225,9.58643877 17.0194986,9.70101499 L16.0559263,10.6444326 C15.9974143,10.7017208 15.9025477,10.7017208 15.8440357,10.6444326 L15.4564101,10.2649148 C13.8236338,8.66629067 11.1763804,8.66629067 9.54360405,10.2649148 L9.12848906,10.6713471 C9.06997705,10.7286352 8.9751104,10.7286352 8.91659849,10.6713471 L7.95302617,9.72792944 C7.83600225,9.61335322 7.83600225,9.42758853 7.95302617,9.31301235 L8.2621959,9.01030937 Z M18.7305768,10.9613968 L19.588158,11.8010432 C19.7051813,11.9156188 19.705182,12.1013824 19.5881595,12.2159588 L15.7212665,16.0020287 C15.6042434,16.1166058 15.4145102,16.116607 15.2974854,16.0020317 L12.5529985,13.3149461 C12.5237426,13.2863021 12.4763092,13.2863021 12.4470533,13.3149461 L9.70262583,16.0020287 C9.58560308,16.1166061 9.39586978,16.116608 9.27884468,16.0020329 L5.41184199,12.2159106 C5.29481812,12.1013344 5.29481812,11.9155697 5.41184199,11.8009936 L6.26942476,10.9613485 C6.38644863,10.8467724 6.57618193,10.8467724 6.69320586,10.9613485 L9.43773115,13.6484701 C9.46698716,13.6771142 9.51442041,13.6771142 9.54367642,13.6484701 L12.2880654,10.9613485 C12.4050867,10.8467697 12.59482,10.8467654 12.7118466,10.961339 L15.4563731,13.6484689 C15.4856291,13.6771129 15.5330624,13.6771129 15.5623184,13.6484689 L18.3067957,10.9613968 C18.4238196,10.8468206 18.6135528,10.8468206 18.7305768,10.9613968 Z" fill="#FFFFFF" fill-rule="nonzero"></path>
    </g>
</svg>