<svg width="32" height="32" viewBox="0 0 32 32" fill="none" xmlns="http://www.w3.org/2000/svg">
<circle cx="16" cy="16" r="15.25" stroke="#0088CC" stroke-width="1.5"/>
<path fill-rule="evenodd" clip-rule="evenodd" d="M11.5479 10.5739H20.5218C20.8393 10.5739 21.1565 10.6205 21.4881 10.7751C21.8855 10.9603 22.0963 11.2524 22.2439 11.4683C22.2554 11.4851 22.2661 11.5024 22.2761 11.5201C22.4497 11.8291 22.5392 12.1629 22.5392 12.5217C22.5392 12.8627 22.4581 13.2343 22.2761 13.5581C22.2743 13.5613 22.2726 13.5643 22.2708 13.5674L16.6012 23.3065C16.4762 23.5213 16.2461 23.6531 15.9976 23.6522C15.7491 23.6513 15.5199 23.5179 15.3964 23.3023L9.83087 13.5839C9.82927 13.5812 9.82767 13.5786 9.82607 13.5759C9.6987 13.3661 9.50176 13.0415 9.46732 12.6226C9.43567 12.2374 9.52221 11.8515 9.71574 11.5169C9.90927 11.1822 10.2007 10.9146 10.5511 10.7509C10.9269 10.5753 11.3077 10.5739 11.5479 10.5739ZM15.3044 11.9652H11.5479C11.3011 11.9652 11.2063 11.9804 11.1401 12.0113C11.0485 12.0541 10.9716 12.1245 10.9201 12.2134C10.8687 12.3023 10.8455 12.4054 10.854 12.5086C10.8588 12.5678 10.8829 12.6354 11.0251 12.87C11.0281 12.8749 11.031 12.8799 11.0339 12.8849L15.3044 20.342V11.9652ZM16.6957 11.9652V20.3788L21.0652 12.873C21.1145 12.7834 21.1479 12.654 21.1479 12.5217C21.1479 12.4145 21.1257 12.3213 21.0759 12.2253C21.0238 12.1503 20.992 12.1105 20.9654 12.0833C20.9426 12.0601 20.9251 12.0477 20.9003 12.0361C20.797 11.988 20.6913 11.9652 20.5218 11.9652H16.6957Z" fill="#303757"/>
</svg>
