<?xml version="1.0" encoding="UTF-8"?>
<svg width="25px" height="25px" viewBox="0 0 25 25" version="1.1" xmlns="http://www.w3.org/2000/svg" xmlns:xlink="http://www.w3.org/1999/xlink">
    <title>MetaMask</title>
    <g id="MetaMask" stroke="none" stroke-width="1" fill="none" fill-rule="evenodd">
        <rect id="Path" x="0" y="0" width="25" height="25"></rect>
        <polygon id="Shape" fill="#E2761B" fill-rule="nonzero" points="7.35294118 21.7745098 1.79411765 23.3039216 0.205882353 17.8823529 1.91176471 12.5686275 0.784313725 11.245098 1.2745098 10.8921569 0.490196078 10.1764706 1.08823529 9.70588235 0.303921569 9.10784314 0.833333333 8.71568627 0 4.71568627 1.23529412 1 9.19607843 3.97058824 15.8039216 3.97058824 23.754902 1 25 4.71568627 24.1666667 8.71568627 24.6862745 9.10784314 23.9019608 9.70588235 24.5098039 10.1764706 23.7254902 10.8921569 24.2156863 11.245098 23.0784314 12.5686275 24.8039216 17.8823529 23.2058824 23.3039216 17.6470588 21.7745098 16.5686275 22.6568627 14.372549 24.1764706 10.6176471 24.1764706 8.43137255 22.6568627"></polygon>
        <g transform="translate(0.000000, 1.000000)" fill-rule="nonzero" id="Path">
            <polygon fill="#E2761B" points="23.754902 0 14 7.24509804 15.8039216 2.97058824"></polygon>
            <polygon fill="#E4761B" points="1.23529412 0 10.9117647 7.31372549 9.19607843 2.97058824"></polygon>
            <polygon fill="#E4761B" points="20.245098 16.7941176 17.6470588 20.7745098 23.2058824 22.3039216 24.8039216 16.8823529"></polygon>
            <polygon fill="#E4761B" points="0.205882353 16.8823529 1.79411765 22.3039216 7.35294118 20.7745098 4.75490196 16.7941176"></polygon>
            <polygon fill="#E4761B" points="7.03921569 10.0686275 5.49019608 12.4117647 11.0098039 12.6568627 10.8137255 6.7254902"></polygon>
            <polygon fill="#E4761B" points="17.9509804 10.0686275 14.127451 6.65686275 14 12.6568627 19.5098039 12.4117647"></polygon>
            <polygon fill="#E4761B" points="7.35294118 20.7745098 10.6666667 19.1568627 7.80392157 16.9215686"></polygon>
            <polygon fill="#E4761B" points="14.3235294 19.1568627 17.6470588 20.7745098 17.1862745 16.9215686"></polygon>
            <polygon fill="#D7C1B3" points="17.6470588 20.7745098 14.3235294 19.1568627 14.5882353 21.3235294 14.5588235 22.2352941"></polygon>
            <polygon fill="#D7C1B3" points="7.35294118 20.7745098 10.4411765 22.2352941 10.4215686 21.3235294 10.6666667 19.1568627"></polygon>
            <polygon fill="#233447" points="10.4901961 15.4901961 7.7254902 14.6764706 9.67647059 13.7843137"></polygon>
            <polygon fill="#233447" points="14.5 15.4901961 15.3137255 13.7843137 17.2745098 14.6764706"></polygon>
            <polygon fill="#CD6116" points="7.35294118 20.7745098 7.82352941 16.7941176 4.75490196 16.8823529"></polygon>
            <polygon fill="#CD6116" points="17.1764706 16.7941176 17.6470588 20.7745098 20.245098 16.8823529"></polygon>
            <polygon fill="#CD6116" points="19.5098039 12.4117647 14 12.6568627 14.5098039 15.4901961 15.3235294 13.7843137 17.2843137 14.6764706"></polygon>
            <polygon fill="#CD6116" points="7.7254902 14.6764706 9.68627451 13.7843137 10.4901961 15.4901961 11.0098039 12.6568627 5.49019608 12.4117647"></polygon>
            <polygon fill="#E4751F" points="5.49019608 12.4117647 7.80392157 16.9215686 7.7254902 14.6764706"></polygon>
            <polygon fill="#E4751F" points="17.2843137 14.6764706 17.1862745 16.9215686 19.5098039 12.4117647"></polygon>
            <polygon fill="#E4751F" points="11.0098039 12.6568627 10.4901961 15.4901961 11.1372549 18.8333333 11.2843137 14.4313725"></polygon>
            <polygon fill="#E4751F" points="14 12.6568627 13.7352941 14.4215686 13.8529412 18.8333333 14.5098039 15.4901961"></polygon>
            <polygon fill="#F6851B" points="14.5098039 15.4901961 13.8529412 18.8333333 14.3235294 19.1568627 17.1862745 16.9215686 17.2843137 14.6764706"></polygon>
            <polygon fill="#F6851B" points="7.7254902 14.6764706 7.80392157 16.9215686 10.6666667 19.1568627 11.1372549 18.8333333 10.4901961 15.4901961"></polygon>
            <polygon fill="#C0AD9E" points="14.5588235 22.2352941 14.5882353 21.3235294 14.3431373 21.1078431 10.6470588 21.1078431 10.4215686 21.3235294 10.4411765 22.2352941 7.35294118 20.7745098 8.43137255 21.6568627 10.6176471 23.1764706 14.372549 23.1764706 16.5686275 21.6568627 17.6470588 20.7745098"></polygon>
            <polygon fill="#161616" points="14.3235294 19.1568627 13.8529412 18.8333333 11.1372549 18.8333333 10.6666667 19.1568627 10.4215686 21.3235294 10.6470588 21.1078431 14.3431373 21.1078431 14.5882353 21.3235294"></polygon>
            <polygon fill="#763D16" points="24.1666667 7.71568627 25 3.71568627 23.754902 0 14.3235294 7 17.9509804 10.0686275 23.0784314 11.5686275 24.2156863 10.245098 23.7254902 9.89215686 24.5098039 9.17647059 23.9019608 8.70588235 24.6862745 8.10784314"></polygon>
            <polygon fill="#763D16" points="0 3.71568627 0.833333333 7.71568627 0.303921569 8.10784314 1.08823529 8.70588235 0.490196078 9.17647059 1.2745098 9.89215686 0.784313725 10.245098 1.91176471 11.5686275 7.03921569 10.0686275 10.6666667 7 1.23529412 0"></polygon>
            <polygon fill="#F6851B" points="23.0784314 11.5686275 17.9509804 10.0686275 19.5098039 12.4117647 17.1862745 16.9215686 20.245098 16.8823529 24.8039216 16.8823529"></polygon>
            <polygon fill="#F6851B" points="7.03921569 10.0686275 1.91176471 11.5686275 0.205882353 16.8823529 4.75490196 16.8823529 7.80392157 16.9215686 5.49019608 12.4117647"></polygon>
            <polygon fill="#F6851B" points="14 12.6568627 14.3235294 7 15.8137255 2.97058824 9.19607843 2.97058824 10.6666667 7 11.0098039 12.6568627 11.127451 14.4411765 11.1372549 18.8333333 13.8529412 18.8333333 13.872549 14.4411765"></polygon>
        </g>
    </g>
</svg>