<?xml version="1.0" encoding="UTF-8"?>
<svg width="25px" height="25px" viewBox="0 0 25 25" version="1.1" xmlns="http://www.w3.org/2000/svg" xmlns:xlink="http://www.w3.org/1999/xlink">
    <title>WalletLink</title>
    <defs>
        <linearGradient x1="50%" y1="0%" x2="50%" y2="100%" id="linearGradient-1">
            <stop stop-color="#2D66F5" offset="0%"></stop>
            <stop stop-color="#144ADF" offset="100%"></stop>
        </linearGradient>
    </defs>
    <g id="WalletLink" stroke="none" stroke-width="1" fill="none" fill-rule="evenodd">
        <rect id="Path" x="0" y="0" width="25" height="25"></rect>
        <path d="M12.5,0 L12.5,0 C19.4035594,0 25,5.59644063 25,12.5 L25,12.5 C25,19.4035594 19.4035594,25 12.5,25 L12.5,25 C5.59644063,25 0,19.4035594 0,12.5 L0,12.5 C0,5.59644063 5.59644063,0 12.5,0 Z" id="Shape" fill="url(#linearGradient-1)" fill-rule="nonzero"></path>
        <path d="M12.5,5.46875 C16.3040021,5.46875 19.4024541,8.48956926 19.5273371,12.2631891 L19.53125,12.5 C19.53125,16.3040021 16.5104307,19.4024541 12.7368109,19.5273371 L12.5,19.53125 C8.6959979,19.53125 5.59754594,16.5104307 5.47266285,12.7368109 L5.46875,12.5 C5.46875,8.6959979 8.48956926,5.59754594 12.2631891,5.47266285 L12.5,5.46875 Z M14.0625,10.15625 L10.9375,10.15625 C10.5060275,10.15625 10.15625,10.5060275 10.15625,10.9375 L10.15625,10.9375 L10.15625,14.0625 C10.15625,14.4939725 10.5060275,14.84375 10.9375,14.84375 L10.9375,14.84375 L14.0625,14.84375 C14.4939725,14.84375 14.84375,14.4939725 14.84375,14.0625 L14.84375,14.0625 L14.84375,10.9375 C14.84375,10.5060275 14.4939725,10.15625 14.0625,10.15625 L14.0625,10.15625 Z" fill="#FFFFFF" fill-rule="nonzero"></path>
    </g>
</svg>